<mxfile host="app.diagrams.net" agent="Mozilla/5.0 (Windows NT 10.0; Win64; x64) AppleWebKit/537.36 (KHTML, like Gecko) Chrome/128.0.0.0 Safari/537.36 OPR/114.0.0.0" version="25.0.3">
  <diagram id="C5RBs43oDa-KdzZeNtuy" name="Page-1">
    <mxGraphModel dx="1391" dy="701" grid="1" gridSize="10" guides="1" tooltips="1" connect="1" arrows="1" fold="1" page="1" pageScale="1" pageWidth="827" pageHeight="1169" math="0" shadow="0">
      <root>
        <mxCell id="WIyWlLk6GJQsqaUBKTNV-0" />
        <mxCell id="WIyWlLk6GJQsqaUBKTNV-1" parent="WIyWlLk6GJQsqaUBKTNV-0" />
        <mxCell id="4q2FcQhVwxfOFOzRsDYL-0" value="Inicio" style="ellipse;whiteSpace=wrap;html=1;" vertex="1" parent="WIyWlLk6GJQsqaUBKTNV-1">
          <mxGeometry x="250" y="110" width="120" height="70" as="geometry" />
        </mxCell>
        <mxCell id="4q2FcQhVwxfOFOzRsDYL-1" value="Fim" style="ellipse;whiteSpace=wrap;html=1;" vertex="1" parent="WIyWlLk6GJQsqaUBKTNV-1">
          <mxGeometry x="250" y="650" width="120" height="70" as="geometry" />
        </mxCell>
        <mxCell id="4q2FcQhVwxfOFOzRsDYL-2" value="produto" style="html=1;strokeWidth=2;shape=manualInput;whiteSpace=wrap;rounded=1;size=26;arcSize=11;" vertex="1" parent="WIyWlLk6GJQsqaUBKTNV-1">
          <mxGeometry x="260" y="200" width="100" height="60" as="geometry" />
        </mxCell>
        <mxCell id="4q2FcQhVwxfOFOzRsDYL-3" value="valor" style="html=1;strokeWidth=2;shape=manualInput;whiteSpace=wrap;rounded=1;size=26;arcSize=11;" vertex="1" parent="WIyWlLk6GJQsqaUBKTNV-1">
          <mxGeometry x="260" y="290" width="100" height="60" as="geometry" />
        </mxCell>
        <mxCell id="4q2FcQhVwxfOFOzRsDYL-12" style="edgeStyle=orthogonalEdgeStyle;rounded=0;orthogonalLoop=1;jettySize=auto;html=1;exitX=0.5;exitY=1;exitDx=0;exitDy=0;entryX=0.5;entryY=0;entryDx=0;entryDy=0;" edge="1" parent="WIyWlLk6GJQsqaUBKTNV-1" source="4q2FcQhVwxfOFOzRsDYL-4" target="4q2FcQhVwxfOFOzRsDYL-5">
          <mxGeometry relative="1" as="geometry" />
        </mxCell>
        <mxCell id="4q2FcQhVwxfOFOzRsDYL-4" value="desconto" style="html=1;strokeWidth=2;shape=manualInput;whiteSpace=wrap;rounded=1;size=26;arcSize=11;" vertex="1" parent="WIyWlLk6GJQsqaUBKTNV-1">
          <mxGeometry x="260" y="380" width="100" height="60" as="geometry" />
        </mxCell>
        <mxCell id="4q2FcQhVwxfOFOzRsDYL-5" value="valorFinal = valor - valor*desconto/100" style="rounded=1;whiteSpace=wrap;html=1;absoluteArcSize=1;arcSize=14;strokeWidth=2;" vertex="1" parent="WIyWlLk6GJQsqaUBKTNV-1">
          <mxGeometry x="160" y="470" width="300" height="50" as="geometry" />
        </mxCell>
        <mxCell id="4q2FcQhVwxfOFOzRsDYL-14" style="edgeStyle=orthogonalEdgeStyle;rounded=0;orthogonalLoop=1;jettySize=auto;html=1;exitX=0.5;exitY=1;exitDx=0;exitDy=0;exitPerimeter=0;entryX=0.5;entryY=0;entryDx=0;entryDy=0;" edge="1" parent="WIyWlLk6GJQsqaUBKTNV-1" source="4q2FcQhVwxfOFOzRsDYL-6" target="4q2FcQhVwxfOFOzRsDYL-1">
          <mxGeometry relative="1" as="geometry" />
        </mxCell>
        <mxCell id="4q2FcQhVwxfOFOzRsDYL-6" value="produto&lt;br&gt;valor&lt;br&gt;desconto&lt;br&gt;valorFinal" style="strokeWidth=2;html=1;shape=mxgraph.flowchart.display;whiteSpace=wrap;" vertex="1" parent="WIyWlLk6GJQsqaUBKTNV-1">
          <mxGeometry x="235" y="547" width="150" height="75" as="geometry" />
        </mxCell>
        <mxCell id="4q2FcQhVwxfOFOzRsDYL-9" style="edgeStyle=orthogonalEdgeStyle;rounded=0;orthogonalLoop=1;jettySize=auto;html=1;exitX=0.5;exitY=1;exitDx=0;exitDy=0;" edge="1" parent="WIyWlLk6GJQsqaUBKTNV-1" source="4q2FcQhVwxfOFOzRsDYL-0">
          <mxGeometry relative="1" as="geometry">
            <mxPoint x="310" y="210" as="targetPoint" />
          </mxGeometry>
        </mxCell>
        <mxCell id="4q2FcQhVwxfOFOzRsDYL-10" style="edgeStyle=orthogonalEdgeStyle;rounded=0;orthogonalLoop=1;jettySize=auto;html=1;exitX=0.5;exitY=1;exitDx=0;exitDy=0;entryX=0.5;entryY=0.15;entryDx=0;entryDy=0;entryPerimeter=0;" edge="1" parent="WIyWlLk6GJQsqaUBKTNV-1" source="4q2FcQhVwxfOFOzRsDYL-2" target="4q2FcQhVwxfOFOzRsDYL-3">
          <mxGeometry relative="1" as="geometry" />
        </mxCell>
        <mxCell id="4q2FcQhVwxfOFOzRsDYL-11" style="edgeStyle=orthogonalEdgeStyle;rounded=0;orthogonalLoop=1;jettySize=auto;html=1;exitX=0.5;exitY=1;exitDx=0;exitDy=0;entryX=0.51;entryY=0.15;entryDx=0;entryDy=0;entryPerimeter=0;" edge="1" parent="WIyWlLk6GJQsqaUBKTNV-1" source="4q2FcQhVwxfOFOzRsDYL-3" target="4q2FcQhVwxfOFOzRsDYL-4">
          <mxGeometry relative="1" as="geometry" />
        </mxCell>
        <mxCell id="4q2FcQhVwxfOFOzRsDYL-13" style="edgeStyle=orthogonalEdgeStyle;rounded=0;orthogonalLoop=1;jettySize=auto;html=1;exitX=0.5;exitY=1;exitDx=0;exitDy=0;entryX=0.5;entryY=0;entryDx=0;entryDy=0;entryPerimeter=0;" edge="1" parent="WIyWlLk6GJQsqaUBKTNV-1" source="4q2FcQhVwxfOFOzRsDYL-5" target="4q2FcQhVwxfOFOzRsDYL-6">
          <mxGeometry relative="1" as="geometry" />
        </mxCell>
      </root>
    </mxGraphModel>
  </diagram>
</mxfile>
